<?xml version="1.0" encoding="iso-8859-1"?>
<!-- Generator: Adobe Illustrator 19.0.0, SVG Export Plug-In . SVG Version: 6.00 Build 0)  -->
<svg xmlns="http://www.w3.org/2000/svg" xmlns:xlink="http://www.w3.org/1999/xlink" version="1.1" id="Capa_1" x="0px" y="0px" viewBox="0 0 512.001 512.001" style="enable-background:new 0 0 512.001 512.001;" xml:space="preserve" width="512px" height="512px">
<g>
	<g>
		<g>
			<path d="M226.134,392.959V290.436c8.447-4.88,15.565-11.76,20.73-20.036c18.187,13.059,42.153,14.837,62.068,4.606     c19.915-10.231,32.427-30.75,32.402-53.139c-0.042-2.919-0.3-5.83-0.773-8.71c33.927-1.811,60.508-29.849,60.507-63.824     c-0.001-33.975-26.583-62.012-60.51-63.822c0.474-2.88,0.734-5.792,0.776-8.71c0.025-22.392-12.49-42.914-32.409-53.143     c-19.919-10.23-43.889-8.445-62.074,4.621c-10.397-16.877-28.52-27.465-48.328-28.233s-38.696,8.383-50.37,24.405     c-8.77-4.881-18.649-7.423-28.686-7.383C86.494,17.106,59.773,43.827,59.734,76.8c0.042,2.919,0.301,5.83,0.776,8.71     C26.582,87.32,0,115.358,0,149.334c0,33.976,26.582,62.013,60.51,63.823c-0.474,2.88-0.734,5.792-0.776,8.71     c0.038,32.974,26.759,59.695,59.733,59.733c10.036,0.04,19.914-2.502,28.683-7.382c2.814,3.841,6.076,7.332,9.717,10.402v108.339     c0.003,18.583-2.448,37.084-7.292,55.025c-4.871,17.928-12.072,35.14-21.417,51.196c-1.537,2.639-1.546,5.898-0.023,8.545     c1.523,2.647,4.344,4.278,7.398,4.276h110.933c3.055,0,5.876-1.633,7.399-4.281c1.522-2.648,1.513-5.908-0.024-8.548     C236.056,466.926,226.15,430.278,226.134,392.959z M153.601,238.934c0.001-3.13,0.336-6.25,1-9.308     c0.985-4.607-1.951-9.14-6.558-10.125s-9.14,1.951-10.125,6.558c-0.92,4.23-1.384,8.546-1.383,12.875     c-0.005,6.897,1.194,13.742,3.544,20.227c-6.288,3.549-13.39,5.401-20.61,5.373c-23.553-0.028-42.639-19.114-42.667-42.667     c0.066-13.414,6.375-26.032,17.067-34.133c2.438-1.828,3.716-4.818,3.352-7.844c-0.364-3.026-2.314-5.627-5.117-6.825     c-2.802-1.198-6.031-0.809-8.469,1.019c-7.668,5.792-13.809,13.365-17.893,22.064c-0.589,0.022-1.141,0.119-1.741,0.119     c-25.921,0-46.933-21.013-46.933-46.933c0-25.921,21.013-46.933,46.933-46.933c2.119-0.003,4.235,0.144,6.333,0.442     c8.734,1.16,16.962,4.766,23.733,10.404c2.351,1.941,5.558,2.481,8.414,1.416c2.856-1.065,4.927-3.573,5.433-6.579     c0.506-3.006-0.631-6.054-2.981-7.995c-7.752-6.375-16.897-10.834-26.694-13.016c-0.904-3.351-1.388-6.801-1.44-10.272     c0.028-23.553,19.114-42.639,42.667-42.667c7.218-0.028,14.319,1.823,20.606,5.37c-2.347,6.486-3.545,13.332-3.539,20.23     c-0.001,4.329,0.463,8.645,1.383,12.875c0.985,4.607,5.518,7.543,10.125,6.558s7.543-5.518,6.558-10.125     c-0.664-3.058-0.999-6.179-1-9.308c-0.011-20.667,14.799-38.366,35.143-42.002s40.367,7.84,47.515,27.231     c1.794,4.717,2.701,9.725,2.675,14.771c0.007,2.792-0.275,5.578-0.842,8.313c-0.924,4.591,2.024,9.069,6.607,10.034     c4.583,0.965,9.087-1.944,10.093-6.518c0.81-3.891,1.214-7.855,1.209-11.829c-0.063-5.074-0.787-10.118-2.153-15.005     c7.638-6.817,17.516-10.587,27.753-10.595c23.553,0.028,42.639,19.114,42.667,42.667c-0.066,13.414-6.375,26.032-17.067,34.133     c-3.769,2.826-4.534,8.172-1.708,11.942s8.172,4.534,11.942,1.708c7.668-5.792,13.809-13.365,17.893-22.064     c0.589-0.022,1.141-0.119,1.741-0.119c25.921,0,46.933,21.013,46.933,46.933c0,25.921-21.013,46.933-46.933,46.933     c-0.613,0-1.177-0.098-1.778-0.121c-4.568-9.688-11.663-17.966-20.539-23.962c-3.92-2.573-9.182-1.501-11.783,2.4     s-1.567,9.171,2.316,11.8c15.636,10.433,22.601,29.871,17.149,47.861c-5.452,17.989-22.035,30.291-40.832,30.289     c-10.24-0.007-20.119-3.779-27.757-10.598c1.367-4.886,2.092-9.929,2.157-15.002c0.006-3.974-0.399-7.938-1.208-11.829     c-0.605-3.006-2.777-5.457-5.689-6.419c-2.912-0.962-6.116-0.287-8.393,1.767c-2.277,2.055-3.276,5.173-2.617,8.168     c0.567,2.734,0.848,5.52,0.841,8.313c0.023,5.086-0.899,10.133-2.717,14.883c-7.19,19.355-27.214,30.779-47.534,27.118     C168.363,277.275,153.584,259.581,153.601,238.934z M150.834,494.934c6.801-13.589,12.231-27.822,16.208-42.487     c5.246-19.394,7.9-39.397,7.892-59.488v-98.347c10.841,4.363,22.774,5.232,34.133,2.486v95.861     c0.014,35.4,8.262,70.311,24.092,101.975H150.834z" fill="#424242"/>
			<path d="M494.934,401.067c9.421-0.011,17.056-7.646,17.067-17.067v-51.2c-0.011-9.421-7.645-17.056-17.067-17.067H273.068     c-9.421,0.011-17.056,7.646-17.067,17.067V384c0.011,9.421,7.646,17.056,17.067,17.067h17.067v17.067h-17.067     c-9.421,0.011-17.056,7.645-17.067,17.067v17.067c0.011,9.421,7.646,17.056,17.067,17.067h17.067v34.133     c0,4.713,3.82,8.533,8.533,8.533s8.533-3.82,8.533-8.533v-34.133h153.6v34.133c0,4.713,3.82,8.533,8.533,8.533     s8.533-3.82,8.533-8.533v-34.133h17.067c9.421-0.011,17.056-7.646,17.067-17.067v-17.067     c-0.011-9.421-7.645-17.056-17.067-17.067h-17.067v-17.067H494.934z M494.934,435.201l0.009,17.067H273.068v-17.067H494.934z      M307.201,418.134v-17.067h153.6v17.067H307.201z M273.068,384v-51.2h221.867l0.009,51.2H273.068z" fill="#424242"/>
			<path d="M301.94,350.47c-3.202-1.329-6.89-0.59-9.331,1.872c-1.561,1.634-2.445,3.799-2.475,6.059     c-0.031,1.119,0.203,2.23,0.683,3.242c0.413,1.044,1.021,2,1.792,2.817c3.365,3.3,8.752,3.3,12.117,0     c0.771-0.816,1.379-1.772,1.792-2.817c0.437-1.026,0.669-2.127,0.683-3.242C307.221,354.934,305.142,351.799,301.94,350.47z" fill="#424242"/>
			<path d="M477.184,355.155c-0.189-0.542-0.446-1.057-0.767-1.533c-0.341-0.429-0.683-0.854-1.025-1.279     c-3.421-3.158-8.695-3.158-12.117,0c-0.368,0.405-0.71,0.832-1.025,1.279c-0.324,0.474-0.582,0.99-0.767,1.533     c-0.259,0.51-0.434,1.059-0.517,1.625c-0.097,0.535-0.153,1.077-0.167,1.621c0,4.713,3.82,8.533,8.533,8.533     s8.533-3.82,8.533-8.533c-0.013-0.544-0.071-1.086-0.175-1.621C477.617,356.213,477.445,355.664,477.184,355.155z" fill="#424242"/>
		</g>
	</g>
</g>
<g>
</g>
<g>
</g>
<g>
</g>
<g>
</g>
<g>
</g>
<g>
</g>
<g>
</g>
<g>
</g>
<g>
</g>
<g>
</g>
<g>
</g>
<g>
</g>
<g>
</g>
<g>
</g>
<g>
</g>
</svg>
